<svg xmlns="http://www.w3.org/2000/svg" viewBox="0 0 64 64" width="64" height="64">
  <!-- Body -->
  <ellipse cx="32" cy="42" rx="22" ry="16" fill="#5D6D7E"/>

  <!-- Belly -->
  <ellipse cx="32" cy="46" rx="16" ry="10" fill="#ABB2B9"/>

  <!-- Head -->
  <circle cx="32" cy="22" r="16" fill="#5D6D7E"/>

  <!-- Snout -->
  <ellipse cx="32" cy="30" rx="8" ry="6" fill="#ABB2B9"/>

  <!-- Eyes -->
  <circle cx="24" cy="20" r="5" fill="white"/>
  <circle cx="40" cy="20" r="5" fill="white"/>
  <circle cx="25" cy="20" r="3" fill="#1a1a1a"/>
  <circle cx="41" cy="20" r="3" fill="#1a1a1a"/>
  <circle cx="24" cy="19" r="1" fill="white"/>
  <circle cx="40" cy="19" r="1" fill="white"/>

  <!-- Nose -->
  <ellipse cx="32" cy="28" rx="4" ry="3" fill="#1a1a1a"/>

  <!-- Whisker dots -->
  <circle cx="24" cy="32" r="1" fill="#333"/>
  <circle cx="22" cy="30" r="1" fill="#333"/>
  <circle cx="40" cy="32" r="1" fill="#333"/>
  <circle cx="42" cy="30" r="1" fill="#333"/>

  <!-- Flippers -->
  <ellipse cx="12" cy="44" rx="8" ry="5" fill="#5D6D7E" transform="rotate(-20 12 44)"/>
  <ellipse cx="52" cy="44" rx="8" ry="5" fill="#5D6D7E" transform="rotate(20 52 44)"/>

  <!-- Tail -->
  <ellipse cx="32" cy="56" rx="10" ry="4" fill="#5D6D7E"/>
</svg>
