<svg xmlns="http://www.w3.org/2000/svg" viewBox="0 0 64 64" width="64" height="64">
  <!-- Body -->
  <ellipse cx="32" cy="40" rx="18" ry="20" fill="#8B6914"/>

  <!-- Belly -->
  <ellipse cx="32" cy="44" rx="12" ry="14" fill="#D4A84B"/>

  <!-- Head -->
  <circle cx="32" cy="20" r="14" fill="#8B6914"/>

  <!-- Face -->
  <ellipse cx="32" cy="24" rx="10" ry="8" fill="#D4A84B"/>

  <!-- Eyes -->
  <circle cx="26" cy="18" r="4" fill="white"/>
  <circle cx="38" cy="18" r="4" fill="white"/>
  <circle cx="27" cy="18" r="2" fill="#333"/>
  <circle cx="39" cy="18" r="2" fill="#333"/>

  <!-- Nose -->
  <ellipse cx="32" cy="24" rx="3" ry="2" fill="#333"/>

  <!-- Whiskers -->
  <line x1="20" y1="24" x2="28" y2="25" stroke="#333" stroke-width="1"/>
  <line x1="20" y1="27" x2="28" y2="27" stroke="#333" stroke-width="1"/>
  <line x1="44" y1="24" x2="36" y2="25" stroke="#333" stroke-width="1"/>
  <line x1="44" y1="27" x2="36" y2="27" stroke="#333" stroke-width="1"/>

  <!-- Ears -->
  <circle cx="20" cy="12" r="4" fill="#8B6914"/>
  <circle cx="44" cy="12" r="4" fill="#8B6914"/>

  <!-- Paws -->
  <ellipse cx="18" cy="52" rx="6" ry="4" fill="#8B6914"/>
  <ellipse cx="46" cy="52" rx="6" ry="4" fill="#8B6914"/>

  <!-- Tail hint -->
  <ellipse cx="32" cy="58" rx="8" ry="3" fill="#8B6914"/>
</svg>
