<svg xmlns="http://www.w3.org/2000/svg" viewBox="0 0 64 64" width="64" height="64">
  <!-- Body -->
  <ellipse cx="32" cy="44" rx="16" ry="14" fill="#F5F5DC"/>

  <!-- Wing -->
  <ellipse cx="38" cy="42" rx="14" ry="10" fill="#A0522D"/>
  <ellipse cx="36" cy="44" rx="12" ry="8" fill="#8B4513"/>

  <!-- Neck -->
  <path d="M28 36 Q24 28 26 18" stroke="#F5F5DC" stroke-width="10" fill="none" stroke-linecap="round"/>

  <!-- Head -->
  <circle cx="26" cy="16" r="10" fill="#F5F5DC"/>

  <!-- Eye -->
  <circle cx="22" cy="14" r="3" fill="white"/>
  <circle cx="22" cy="14" r="1.5" fill="#333"/>

  <!-- Beak -->
  <path d="M30 16 L50 20 L50 24 L30 22 Z" fill="#FFB347"/>
  <path d="M30 22 L50 24 Q48 32 40 30 L30 26 Z" fill="#FF8C00"/>

  <!-- Pouch lines -->
  <path d="M34 24 Q42 28 40 30" stroke="#CC7000" stroke-width="1" fill="none"/>

  <!-- Legs -->
  <rect x="26" y="54" width="3" height="8" fill="#FFB347"/>
  <rect x="35" y="54" width="3" height="8" fill="#FFB347"/>

  <!-- Feet -->
  <ellipse cx="27" cy="62" rx="4" ry="2" fill="#FFB347"/>
  <ellipse cx="36" cy="62" rx="4" ry="2" fill="#FFB347"/>
</svg>
